<?xml version="1.0" encoding="UTF-8"?>
<svg id="Layer_1" xmlns="http://www.w3.org/2000/svg" xmlns:xlink="http://www.w3.org/1999/xlink" viewBox="0 0 172 169.92">
  <defs>
    <style>
      .cls-1 {
        clip-path: url(#clippath-6);
      }

      .cls-2 {
        clip-path: url(#clippath-4);
      }

      .cls-3 {
        fill: none;
      }

      .cls-4 {
        fill: #fff;
        opacity: .9;
      }

      .cls-5 {
        clip-path: url(#clippath-1);
      }

      .cls-6 {
        clip-path: url(#clippath-5);
      }

      .cls-7 {
        clip-path: url(#clippath-3);
      }

      .cls-8 {
        clip-path: url(#clippath-2);
      }

      .cls-9 {
        fill: #500;
      }

      .cls-10 {
        clip-path: url(#clippath);
      }
    </style>
    <clipPath id="clippath">
      <rect class="cls-3" width="172" height="169.92"/>
    </clipPath>
    <clipPath id="clippath-1">
      <rect class="cls-3" width="172" height="169.92"/>
    </clipPath>
    <clipPath id="clippath-2">
      <rect class="cls-3" width="172" height="169.92"/>
    </clipPath>
    <clipPath id="clippath-3">
      <rect class="cls-3" width="172" height="169.92"/>
    </clipPath>
    <clipPath id="clippath-4">
      <rect class="cls-3" width="172" height="169.92"/>
    </clipPath>
    <clipPath id="clippath-5">
      <rect class="cls-3" width="172" height="169.92"/>
    </clipPath>
    <clipPath id="clippath-6">
      <rect class="cls-3" x="38.36" y="126.3" width="131.38" height="33.98"/>
    </clipPath>
  </defs>
  <g class="cls-10">
    <rect class="cls-9" width="172" height="169.92"/>
    <g class="cls-5">
      <path class="cls-4" d="M74.22,121.13h-3.43v8.41h1.22v-3.24h2.21c1.66,0,2.6-1.19,2.6-2.59s-.93-2.59-2.6-2.59M72.01,125.2v-2.95h2.05c.88,0,1.5.59,1.5,1.48s-.62,1.48-1.5,1.48h-2.05Z"/>
      <path class="cls-4" d="M82.33,121.13h-3.43v8.41h1.22v-3.24h1.53l1.94,3.24h1.42l-2.09-3.37c1.04-.14,2.03-.95,2.03-2.46s-1.06-2.59-2.61-2.59M80.12,125.2v-2.95h2.05c.88,0,1.51.59,1.51,1.48s-.64,1.48-1.51,1.48h-2.05Z"/>
    </g>
    <path class="cls-4" d="M91.18,121.14h-1.53l-3.24,8.41h1.35l.66-1.74h3.99l.66,1.74h1.34l-3.24-8.41ZM88.78,126.69l1.64-4.45,1.65,4.45h-3.28Z"/>
    <rect class="cls-4" x="96.21" y="121.13" width="1.22" height="8.41"/>
    <g class="cls-8">
      <path class="cls-4" d="M103.5,121.13h-3.43v8.41h1.22v-3.24h1.53l1.94,3.24h1.42l-2.09-3.37c1.04-.14,2.03-.95,2.03-2.46s-1.06-2.59-2.61-2.59M101.29,125.2v-2.95h2.05c.88,0,1.51.59,1.51,1.48s-.63,1.48-1.51,1.48h-2.05Z"/>
    </g>
    <rect class="cls-4" x="108.43" y="121.13" width="1.22" height="8.41"/>
    <polygon class="cls-4" points="117.76 121.14 112.29 121.14 112.29 129.55 117.76 129.55 117.76 128.44 113.51 128.44 113.51 125.82 117.68 125.82 117.68 124.71 113.51 124.71 113.51 122.25 117.76 122.25 117.76 121.14"/>
    <g class="cls-7">
      <path class="cls-4" d="M127.51,121.13h-3.43v8.41h1.22v-3.24h1.53l1.94,3.24h1.42l-2.09-3.37c1.04-.14,2.03-.95,2.03-2.46s-1.06-2.59-2.61-2.59M125.3,125.2v-2.95h2.05c.88,0,1.51.59,1.51,1.48s-.63,1.48-1.51,1.48h-2.05Z"/>
    </g>
    <rect class="cls-4" x="132.44" y="121.13" width="1.22" height="8.41"/>
    <g class="cls-2">
      <path class="cls-4" d="M139.2,121.13h-2.91v8.41h2.91c2.54,0,4.23-1.77,4.23-4.2s-1.68-4.21-4.23-4.21M137.52,128.44v-6.19h1.69c1.92,0,2.97,1.38,2.97,3.1s-1.09,3.09-2.97,3.09h-1.69Z"/>
      <path class="cls-4" d="M149.61,121c-2.33,0-4.23,1.73-4.23,4.35s1.89,4.36,4.23,4.36c1.38,0,2.5-.59,3.29-1.49v-3.09h-3.84v1.11h2.61v1.51c-.39.38-1.16.83-2.06.83-1.7,0-2.97-1.36-2.97-3.24s1.27-3.23,2.97-3.23c.95,0,1.77.49,2.23,1.13l.99-.59c-.68-.95-1.7-1.67-3.22-1.67"/>
    </g>
    <polygon class="cls-4" points="160.74 121.14 155.27 121.14 155.27 129.55 160.74 129.55 160.74 128.44 156.49 128.44 156.49 125.82 160.66 125.82 160.66 124.71 156.49 124.71 156.49 122.25 160.74 122.25 160.74 121.14"/>
    <g class="cls-6">
      <path class="cls-4" d="M53.22,121.68h-.3c-.41.67-.78,1.14-1.11,1.41-.33.27-.75.48-1.25.61l-.07.27h1.03l-1.14,3.96c-.15.51-.22.88-.22,1.13,0,.2.06.36.19.48.13.12.29.19.49.19.26,0,.52-.09.77-.26.37-.25.77-.68,1.19-1.29l-.22-.17c-.38.47-.62.75-.73.84-.19.16-.34.24-.45.24l-.13-.06-.06-.18c0-.13.06-.41.19-.84l1.18-4.03h1.07l.12-.43h-1.07l.53-1.86Z"/>
      <path class="cls-4" d="M57.49,119.84l-2.37.4v.27l.14-.02c.17-.03.29-.04.38-.04.14,0,.26.05.36.14s.15.2.15.31l-.24.85-2.25,7.82h1.03l.44-1.4c.12-.38.28-.73.47-1.05.62-1,.98-1.57,1.09-1.71.41-.52.76-.88,1.07-1.07.17-.1.32-.15.45-.15.09,0,.17.03.22.08.06.05.08.13.08.22,0,.2-.05.47-.15.81l-.79,2.73c-.16.55-.24.92-.24,1.12,0,.17.05.31.16.42.11.11.24.16.41.16.15,0,.33-.06.53-.17.2-.11.44-.31.71-.6.28-.29.49-.56.65-.8l-.21-.13c-.26.36-.51.63-.77.83l-.2.09-.13-.06-.06-.16s.05-.23.16-.57l.83-2.86c.13-.43.19-.79.19-1.09,0-.25-.07-.45-.22-.6-.15-.15-.33-.23-.55-.23-.42,0-.87.21-1.33.62-.47.41-1.11,1.24-1.94,2.49l1.92-6.64Z"/>
      <path class="cls-4" d="M64.97,123.38c-.67,0-1.32.2-1.95.59-.63.4-1.16.95-1.58,1.66-.42.71-.63,1.41-.63,2.08,0,.51.17.97.51,1.39.34.42.84.63,1.5.63.98,0,2.01-.53,3.09-1.61l-.14-.2c-.6.46-1.05.76-1.35.89-.3.13-.62.2-.95.2-.41,0-.76-.14-1.05-.43-.29-.28-.43-.63-.43-1.04,0-.15.02-.34.05-.57.93-.1,1.64-.25,2.15-.44.77-.28,1.35-.64,1.75-1.09.3-.35.45-.71.45-1.09,0-.27-.12-.5-.35-.7-.23-.2-.59-.29-1.07-.29M62.09,126.65c.25-.97.63-1.7,1.15-2.19.52-.49,1.02-.74,1.48-.74.22,0,.39.06.52.18s.18.27.18.47c0,.31-.14.65-.42.99-.28.35-.7.65-1.26.9-.42.19-.97.32-1.65.4"/>
      <g class="cls-1">
        <path class="cls-4" d="M153.82,148.87v-4.83l.54-.31,2.3,3.33-2.85,1.8ZM149.45,154.26l1.25-1.02,4.2,3.12,5.84-4.75-.41-.68-3.12,2.44-3.4-2.31v-1.22l6.11-3.8v-.14l-2.85-4.35-6.79,3.53v7.46l-1.34,1.09.5.62ZM146.13,152.69v-18.33h-.54l-4.62,3.26v.41c1.24.41,1.36.72,1.36,2.06v12.34l-1.9,1.22.41.54,1.09-.68,2.99,2.58,3.53-2.44-.41-.54-.81.68-1.09-1.09ZM134.73,151.15c.84,1.55,2.38,1.94,3.2,1.95l1.63-1.18.37.5-4.17,3.66h-.4l-4.28-2.91v-8.47l5.85-3.26,3,2.41-2.69,2.04-2.52-2.1v7.37ZM122.7,137.74l2.42,2.75,2.71-2.38-2.42-2.75-2.71,2.38ZM129.31,152.83l-1.22.82-.95-.95v-8.56l-2.17-2.58-3.8,2.58.41.54,1.09-.68.95,1.22v7.47l-1.77,1.22.41.54.95-.68,2.72,2.44,4.07-2.85-.68-.54ZM120.22,152.83l-1.09.82-1.22-1.09v-7.4l1.37-1.11-.5-.62-1.19.97-3.21-2.76-3.11,2.43-2.18-2.43-3.94,2.72.41.54,1.09-.68,1.09,1.22v7.53l-1.09.95,3.26,2.58,2.72-2.44-1.22-1.09v-7.78l1.22-.97,2.04,1.77v6.98l-.95.95,2.85,2.58,4.21-2.85-.54-.82ZM92.58,154.17l1.18-.95,3.98,2.88,6.25-3.8v-7.74l-4.07-3.12-6.38,3.67v7.28l-1.45,1.18.5.62ZM97.2,151.74v-8.15l3.26,2.17v8.15l-3.26-2.17ZM89.72,152.53l-1.53,1.04-1.12-.88v-8.35c.92.89,1.91,1.17,2.53,1.17.84,0,2.49-.44,2.82-3.96h-.85c-.24.38-.69.7-1.28.7-.52,0-1.01-.28-1.28-.7h-.29l-1.98,2.24-2.08-2.23-3.8,2.58.41.54,1.09-.68.95,1.22v7.47l-1.76,1.22.41.54.95-.68,3.11,2.44,4.23-3.06-.53-.63ZM71.9,152.69v-6.98l1.58-1.47,1.68,1.39v7.22c0,2.92-1.03,5.68-3.12,5.68v.68c.29.04.58.06.88.06,4.93,0,5.91-3.5,5.91-6.42v-8.09s1.22-.99,1.22-.99l-.5-.62-1.12.91-3-2.51-3.53,3.31v-10.51h-.54l-4.62,3.26v.41c1.36.41,1.36,1.03,1.36,1.49v12.9l-1.9,1.22.48.65,1.09-.68,2.91,2.47,3.53-2.44-.51-.64-.88.61-.92-.92ZM51.9,149.72l4.91-2.07v-10.58s.22-.13.22-.13c.34.23.69.46,1.05.68v15.78c-.05,0-.1,0-.16,0-2.9,0-4.9-1.46-6.02-3.67M51.59,149.03c-.5-1.25-.75-2.69-.75-4.22,0-1.72.28-3.27.81-4.59l1.5-.92v9.06l-1.57.67ZM59.8,134.3h0l-7.46,4.56c.75-1.23,1.78-2.2,3.03-2.85l-.27-.41c-4.11,1.4-7.73,5.41-7.73,10.69s4.24,10.29,9.66,10.29c4.38,0,7.78-3.06,7.99-7.3h-.54c-.98,1.96-2.93,3.7-5.58,4.05v-15.23c1.1.63,2.25,1.19,3.46,1.68l3.37-3.52-.23-.27-.89.74c-1.82-.57-3.37-1.39-4.79-2.43"/>
      </g>
    </g>
  </g>
</svg>